<mxfile host="app.diagrams.net" modified="2023-05-05T07:14:18.228Z" agent="Mozilla/5.0 (Windows NT 10.0; Win64; x64) AppleWebKit/537.36 (KHTML, like Gecko) Chrome/112.0.0.0 Safari/537.36" etag="0HQheCX5Ga1NjLgqpCIz" version="21.2.2" type="github">
  <diagram id="R2lEEEUBdFMjLlhIrx00" name="Page-1">
    <mxGraphModel dx="2023" dy="506" grid="1" gridSize="10" guides="1" tooltips="1" connect="1" arrows="1" fold="1" page="1" pageScale="1" pageWidth="850" pageHeight="1100" math="0" shadow="0" extFonts="Permanent Marker^https://fonts.googleapis.com/css?family=Permanent+Marker">
      <root>
        <mxCell id="0" />
        <mxCell id="1" parent="0" />
        <mxCell id="SAlh1_uHHdO9KxUeJymk-1" value="order" style="whiteSpace=wrap;html=1;align=center;" vertex="1" parent="1">
          <mxGeometry x="380" y="210" width="100" height="40" as="geometry" />
        </mxCell>
        <mxCell id="SAlh1_uHHdO9KxUeJymk-2" value="passports" style="whiteSpace=wrap;html=1;align=center;" vertex="1" parent="1">
          <mxGeometry x="630" y="210" width="100" height="40" as="geometry" />
        </mxCell>
        <mxCell id="SAlh1_uHHdO9KxUeJymk-3" value="country" style="whiteSpace=wrap;html=1;align=center;" vertex="1" parent="1">
          <mxGeometry x="380" y="450" width="100" height="40" as="geometry" />
        </mxCell>
        <mxCell id="SAlh1_uHHdO9KxUeJymk-4" value="vaccine" style="whiteSpace=wrap;html=1;align=center;" vertex="1" parent="1">
          <mxGeometry x="670" y="450" width="100" height="40" as="geometry" />
        </mxCell>
        <mxCell id="SAlh1_uHHdO9KxUeJymk-6" value="hotel&amp;nbsp;&lt;span style=&quot;font-size:11.0pt;line-height:107%;font-family:&amp;quot;Segoe UI&amp;quot;,sans-serif;&lt;br/&gt;mso-fareast-font-family:Calibri;mso-fareast-theme-font:minor-latin;color:#374151;&lt;br/&gt;mso-ansi-language:EN-US;mso-fareast-language:EN-US;mso-bidi-language:HE&quot;&gt;&lt;/span&gt;reservation" style="whiteSpace=wrap;html=1;align=center;" vertex="1" parent="1">
          <mxGeometry x="100" y="344" width="100" height="40" as="geometry" />
        </mxCell>
        <mxCell id="SAlh1_uHHdO9KxUeJymk-7" value="flight reservation" style="whiteSpace=wrap;html=1;align=center;" vertex="1" parent="1">
          <mxGeometry x="220" y="344" width="100" height="40" as="geometry" />
        </mxCell>
        <mxCell id="SAlh1_uHHdO9KxUeJymk-8" value="" style="endArrow=none;html=1;rounded=0;exitX=1;exitY=0.5;exitDx=0;exitDy=0;entryX=0;entryY=0.5;entryDx=0;entryDy=0;" edge="1" parent="1" source="SAlh1_uHHdO9KxUeJymk-1" target="SAlh1_uHHdO9KxUeJymk-2">
          <mxGeometry relative="1" as="geometry">
            <mxPoint x="500" y="270" as="sourcePoint" />
            <mxPoint x="640" y="290" as="targetPoint" />
          </mxGeometry>
        </mxCell>
        <mxCell id="SAlh1_uHHdO9KxUeJymk-9" value="1" style="resizable=0;html=1;whiteSpace=wrap;align=left;verticalAlign=bottom;" connectable="0" vertex="1" parent="SAlh1_uHHdO9KxUeJymk-8">
          <mxGeometry x="-1" relative="1" as="geometry" />
        </mxCell>
        <mxCell id="SAlh1_uHHdO9KxUeJymk-10" value="M" style="resizable=0;html=1;whiteSpace=wrap;align=right;verticalAlign=bottom;" connectable="0" vertex="1" parent="SAlh1_uHHdO9KxUeJymk-8">
          <mxGeometry x="1" relative="1" as="geometry" />
        </mxCell>
        <mxCell id="SAlh1_uHHdO9KxUeJymk-11" value="has" style="shape=rhombus;perimeter=rhombusPerimeter;whiteSpace=wrap;html=1;align=center;" vertex="1" parent="1">
          <mxGeometry x="525" y="214" width="60" height="30" as="geometry" />
        </mxCell>
        <mxCell id="SAlh1_uHHdO9KxUeJymk-12" value="" style="endArrow=none;html=1;rounded=0;exitX=1;exitY=0.5;exitDx=0;exitDy=0;entryX=0;entryY=0.5;entryDx=0;entryDy=0;" edge="1" parent="1" source="SAlh1_uHHdO9KxUeJymk-3" target="SAlh1_uHHdO9KxUeJymk-4">
          <mxGeometry relative="1" as="geometry">
            <mxPoint x="550" y="500" as="sourcePoint" />
            <mxPoint x="710" y="500" as="targetPoint" />
          </mxGeometry>
        </mxCell>
        <mxCell id="SAlh1_uHHdO9KxUeJymk-13" value="M" style="resizable=0;html=1;whiteSpace=wrap;align=left;verticalAlign=bottom;" connectable="0" vertex="1" parent="SAlh1_uHHdO9KxUeJymk-12">
          <mxGeometry x="-1" relative="1" as="geometry" />
        </mxCell>
        <mxCell id="SAlh1_uHHdO9KxUeJymk-14" value="N" style="resizable=0;html=1;whiteSpace=wrap;align=right;verticalAlign=bottom;" connectable="0" vertex="1" parent="SAlh1_uHHdO9KxUeJymk-12">
          <mxGeometry x="1" relative="1" as="geometry" />
        </mxCell>
        <mxCell id="SAlh1_uHHdO9KxUeJymk-15" value="mandatory vaccine" style="shape=rhombus;perimeter=rhombusPerimeter;whiteSpace=wrap;html=1;align=center;" vertex="1" parent="1">
          <mxGeometry x="534" y="442" width="90" height="55" as="geometry" />
        </mxCell>
        <mxCell id="SAlh1_uHHdO9KxUeJymk-22" value="" style="endArrow=none;html=1;rounded=0;entryX=0.5;entryY=0;entryDx=0;entryDy=0;" edge="1" parent="1" source="SAlh1_uHHdO9KxUeJymk-1" target="SAlh1_uHHdO9KxUeJymk-3">
          <mxGeometry relative="1" as="geometry">
            <mxPoint x="430" y="370" as="sourcePoint" />
            <mxPoint x="680" y="480" as="targetPoint" />
          </mxGeometry>
        </mxCell>
        <mxCell id="SAlh1_uHHdO9KxUeJymk-23" value="M" style="resizable=0;html=1;whiteSpace=wrap;align=left;verticalAlign=bottom;" connectable="0" vertex="1" parent="SAlh1_uHHdO9KxUeJymk-22">
          <mxGeometry x="-1" relative="1" as="geometry">
            <mxPoint x="-16" y="16" as="offset" />
          </mxGeometry>
        </mxCell>
        <mxCell id="SAlh1_uHHdO9KxUeJymk-24" value="N" style="resizable=0;html=1;whiteSpace=wrap;align=right;verticalAlign=bottom;" connectable="0" vertex="1" parent="SAlh1_uHHdO9KxUeJymk-22">
          <mxGeometry x="1" relative="1" as="geometry" />
        </mxCell>
        <mxCell id="SAlh1_uHHdO9KxUeJymk-25" value="destenation" style="shape=rhombus;perimeter=rhombusPerimeter;whiteSpace=wrap;html=1;align=center;" vertex="1" parent="1">
          <mxGeometry x="395" y="315" width="70" height="35" as="geometry" />
        </mxCell>
        <mxCell id="SAlh1_uHHdO9KxUeJymk-27" value="" style="endArrow=none;html=1;rounded=0;exitX=0.5;exitY=0;exitDx=0;exitDy=0;entryX=0;entryY=0.5;entryDx=0;entryDy=0;" edge="1" parent="1" target="SAlh1_uHHdO9KxUeJymk-1">
          <mxGeometry relative="1" as="geometry">
            <mxPoint x="141" y="344" as="sourcePoint" />
            <mxPoint x="141" y="249" as="targetPoint" />
            <Array as="points">
              <mxPoint x="141" y="230" />
            </Array>
          </mxGeometry>
        </mxCell>
        <mxCell id="SAlh1_uHHdO9KxUeJymk-28" value="M" style="resizable=0;html=1;whiteSpace=wrap;align=left;verticalAlign=bottom;" connectable="0" vertex="1" parent="SAlh1_uHHdO9KxUeJymk-27">
          <mxGeometry x="-1" relative="1" as="geometry" />
        </mxCell>
        <mxCell id="SAlh1_uHHdO9KxUeJymk-29" value="1" style="resizable=0;html=1;whiteSpace=wrap;align=right;verticalAlign=bottom;" connectable="0" vertex="1" parent="SAlh1_uHHdO9KxUeJymk-27">
          <mxGeometry x="1" relative="1" as="geometry">
            <mxPoint y="17" as="offset" />
          </mxGeometry>
        </mxCell>
        <mxCell id="SAlh1_uHHdO9KxUeJymk-26" value="include" style="shape=rhombus;perimeter=rhombusPerimeter;whiteSpace=wrap;html=1;align=center;" vertex="1" parent="1">
          <mxGeometry x="111" y="281" width="60" height="30" as="geometry" />
        </mxCell>
        <mxCell id="SAlh1_uHHdO9KxUeJymk-31" value="" style="endArrow=none;html=1;rounded=0;entryX=0;entryY=0.25;entryDx=0;entryDy=0;exitX=0.898;exitY=0.046;exitDx=0;exitDy=0;exitPerimeter=0;" edge="1" parent="1" source="SAlh1_uHHdO9KxUeJymk-71" target="SAlh1_uHHdO9KxUeJymk-1">
          <mxGeometry relative="1" as="geometry">
            <mxPoint x="10" y="230" as="sourcePoint" />
            <mxPoint x="680" y="480" as="targetPoint" />
            <Array as="points">
              <mxPoint x="80" y="220" />
            </Array>
          </mxGeometry>
        </mxCell>
        <mxCell id="SAlh1_uHHdO9KxUeJymk-32" value="M" style="resizable=0;html=1;whiteSpace=wrap;align=left;verticalAlign=bottom;" connectable="0" vertex="1" parent="SAlh1_uHHdO9KxUeJymk-31">
          <mxGeometry x="-1" relative="1" as="geometry" />
        </mxCell>
        <mxCell id="SAlh1_uHHdO9KxUeJymk-33" value="1" style="resizable=0;html=1;whiteSpace=wrap;align=right;verticalAlign=bottom;" connectable="0" vertex="1" parent="SAlh1_uHHdO9KxUeJymk-31">
          <mxGeometry x="1" relative="1" as="geometry" />
        </mxCell>
        <mxCell id="SAlh1_uHHdO9KxUeJymk-30" value="order" style="shape=rhombus;perimeter=rhombusPerimeter;whiteSpace=wrap;html=1;align=center;" vertex="1" parent="1">
          <mxGeometry x="86" y="205" width="60" height="30" as="geometry" />
        </mxCell>
        <mxCell id="SAlh1_uHHdO9KxUeJymk-38" value="" style="endArrow=none;html=1;rounded=0;entryX=0;entryY=1;entryDx=0;entryDy=0;exitX=0.119;exitY=0.002;exitDx=0;exitDy=0;exitPerimeter=0;" edge="1" parent="1" source="SAlh1_uHHdO9KxUeJymk-7" target="SAlh1_uHHdO9KxUeJymk-1">
          <mxGeometry relative="1" as="geometry">
            <mxPoint x="230" y="345" as="sourcePoint" />
            <mxPoint x="230" y="249" as="targetPoint" />
            <Array as="points">
              <mxPoint x="232" y="250" />
            </Array>
          </mxGeometry>
        </mxCell>
        <mxCell id="SAlh1_uHHdO9KxUeJymk-39" value="M" style="resizable=0;html=1;whiteSpace=wrap;align=left;verticalAlign=bottom;" connectable="0" vertex="1" parent="SAlh1_uHHdO9KxUeJymk-38">
          <mxGeometry x="-1" relative="1" as="geometry" />
        </mxCell>
        <mxCell id="SAlh1_uHHdO9KxUeJymk-40" value="1" style="resizable=0;html=1;whiteSpace=wrap;align=right;verticalAlign=bottom;" connectable="0" vertex="1" parent="SAlh1_uHHdO9KxUeJymk-38">
          <mxGeometry x="1" relative="1" as="geometry">
            <mxPoint y="17" as="offset" />
          </mxGeometry>
        </mxCell>
        <mxCell id="SAlh1_uHHdO9KxUeJymk-41" value="include" style="shape=rhombus;perimeter=rhombusPerimeter;whiteSpace=wrap;html=1;align=center;" vertex="1" parent="1">
          <mxGeometry x="201" y="282" width="60" height="30" as="geometry" />
        </mxCell>
        <mxCell id="SAlh1_uHHdO9KxUeJymk-54" value="customer" style="whiteSpace=wrap;html=1;align=center;" vertex="1" parent="1">
          <mxGeometry x="380" y="80" width="100" height="40" as="geometry" />
        </mxCell>
        <mxCell id="SAlh1_uHHdO9KxUeJymk-55" value="visa" style="whiteSpace=wrap;html=1;align=center;" vertex="1" parent="1">
          <mxGeometry x="380" y="640" width="100" height="40" as="geometry" />
        </mxCell>
        <mxCell id="SAlh1_uHHdO9KxUeJymk-57" value="" style="endArrow=none;html=1;rounded=0;exitX=0.5;exitY=1;exitDx=0;exitDy=0;" edge="1" parent="1" source="SAlh1_uHHdO9KxUeJymk-54" target="SAlh1_uHHdO9KxUeJymk-1">
          <mxGeometry relative="1" as="geometry">
            <mxPoint x="490" y="240" as="sourcePoint" />
            <mxPoint x="640" y="240" as="targetPoint" />
          </mxGeometry>
        </mxCell>
        <mxCell id="SAlh1_uHHdO9KxUeJymk-58" value="1" style="resizable=0;html=1;whiteSpace=wrap;align=left;verticalAlign=bottom;" connectable="0" vertex="1" parent="SAlh1_uHHdO9KxUeJymk-57">
          <mxGeometry x="-1" relative="1" as="geometry">
            <mxPoint x="-12" y="17" as="offset" />
          </mxGeometry>
        </mxCell>
        <mxCell id="SAlh1_uHHdO9KxUeJymk-59" value="M" style="resizable=0;html=1;whiteSpace=wrap;align=right;verticalAlign=bottom;" connectable="0" vertex="1" parent="SAlh1_uHHdO9KxUeJymk-57">
          <mxGeometry x="1" relative="1" as="geometry" />
        </mxCell>
        <mxCell id="SAlh1_uHHdO9KxUeJymk-56" value="customer order" style="shape=rhombus;perimeter=rhombusPerimeter;whiteSpace=wrap;html=1;align=center;" vertex="1" parent="1">
          <mxGeometry x="401" y="136" width="59" height="44" as="geometry" />
        </mxCell>
        <mxCell id="SAlh1_uHHdO9KxUeJymk-60" value="" style="endArrow=none;html=1;rounded=0;exitX=0.5;exitY=1;exitDx=0;exitDy=0;" edge="1" parent="1" source="SAlh1_uHHdO9KxUeJymk-3" target="SAlh1_uHHdO9KxUeJymk-55">
          <mxGeometry relative="1" as="geometry">
            <mxPoint x="490" y="525" as="sourcePoint" />
            <mxPoint x="680" y="525" as="targetPoint" />
          </mxGeometry>
        </mxCell>
        <mxCell id="SAlh1_uHHdO9KxUeJymk-61" value="1" style="resizable=0;html=1;whiteSpace=wrap;align=left;verticalAlign=bottom;" connectable="0" vertex="1" parent="SAlh1_uHHdO9KxUeJymk-60">
          <mxGeometry x="-1" relative="1" as="geometry">
            <mxPoint x="-17" y="18" as="offset" />
          </mxGeometry>
        </mxCell>
        <mxCell id="SAlh1_uHHdO9KxUeJymk-62" value="M" style="resizable=0;html=1;whiteSpace=wrap;align=right;verticalAlign=bottom;" connectable="0" vertex="1" parent="SAlh1_uHHdO9KxUeJymk-60">
          <mxGeometry x="1" relative="1" as="geometry" />
        </mxCell>
        <mxCell id="SAlh1_uHHdO9KxUeJymk-63" value="mandatory visa" style="shape=rhombus;perimeter=rhombusPerimeter;whiteSpace=wrap;html=1;align=center;" vertex="1" parent="1">
          <mxGeometry x="391" y="536" width="79" height="50" as="geometry" />
        </mxCell>
        <mxCell id="SAlh1_uHHdO9KxUeJymk-67" value="" style="endArrow=none;html=1;rounded=0;entryX=0.864;entryY=0.017;entryDx=0;entryDy=0;entryPerimeter=0;exitX=0.089;exitY=0.991;exitDx=0;exitDy=0;exitPerimeter=0;" edge="1" parent="1" source="SAlh1_uHHdO9KxUeJymk-2" target="SAlh1_uHHdO9KxUeJymk-3">
          <mxGeometry relative="1" as="geometry">
            <mxPoint x="640" y="260" as="sourcePoint" />
            <mxPoint x="470" y="430" as="targetPoint" />
            <Array as="points">
              <mxPoint x="640" y="360" />
              <mxPoint x="466" y="360" />
            </Array>
          </mxGeometry>
        </mxCell>
        <mxCell id="SAlh1_uHHdO9KxUeJymk-68" value="M" style="resizable=0;html=1;whiteSpace=wrap;align=left;verticalAlign=bottom;" connectable="0" vertex="1" parent="SAlh1_uHHdO9KxUeJymk-67">
          <mxGeometry x="-1" relative="1" as="geometry">
            <mxPoint x="2" y="23" as="offset" />
          </mxGeometry>
        </mxCell>
        <mxCell id="SAlh1_uHHdO9KxUeJymk-69" value="1" style="resizable=0;html=1;whiteSpace=wrap;align=right;verticalAlign=bottom;" connectable="0" vertex="1" parent="SAlh1_uHHdO9KxUeJymk-67">
          <mxGeometry x="1" relative="1" as="geometry">
            <mxPoint x="1" y="-7" as="offset" />
          </mxGeometry>
        </mxCell>
        <mxCell id="SAlh1_uHHdO9KxUeJymk-70" value="pass country" style="shape=rhombus;perimeter=rhombusPerimeter;whiteSpace=wrap;html=1;align=center;rotation=0;" vertex="1" parent="1">
          <mxGeometry x="550" y="346" width="49.64" height="27.18" as="geometry" />
        </mxCell>
        <mxCell id="SAlh1_uHHdO9KxUeJymk-71" value="car rental reservation" style="whiteSpace=wrap;html=1;align=center;" vertex="1" parent="1">
          <mxGeometry x="-10" y="344" width="100" height="40" as="geometry" />
        </mxCell>
        <mxCell id="SAlh1_uHHdO9KxUeJymk-72" value="hotel&amp;nbsp;&lt;span style=&quot;font-size:11.0pt;line-height:107%;font-family:&amp;quot;Segoe UI&amp;quot;,sans-serif;&lt;br/&gt;mso-fareast-font-family:Calibri;mso-fareast-theme-font:minor-latin;color:#374151;&lt;br/&gt;mso-ansi-language:EN-US;mso-fareast-language:EN-US;mso-bidi-language:HE&quot;&gt;&lt;/span&gt;company" style="whiteSpace=wrap;html=1;align=center;" vertex="1" parent="1">
          <mxGeometry x="100" y="510" width="100" height="40" as="geometry" />
        </mxCell>
        <mxCell id="SAlh1_uHHdO9KxUeJymk-73" value="car&amp;nbsp;&lt;span style=&quot;font-size:11.0pt;line-height:107%;font-family:&amp;quot;Segoe UI&amp;quot;,sans-serif;&lt;br/&gt;mso-fareast-font-family:Calibri;mso-fareast-theme-font:minor-latin;color:#374151;&lt;br/&gt;mso-ansi-language:EN-US;mso-fareast-language:EN-US;mso-bidi-language:HE&quot;&gt;&lt;/span&gt;company" style="whiteSpace=wrap;html=1;align=center;" vertex="1" parent="1">
          <mxGeometry x="-14" y="510" width="100" height="40" as="geometry" />
        </mxCell>
        <mxCell id="SAlh1_uHHdO9KxUeJymk-74" value="flight&amp;nbsp;&lt;span style=&quot;font-size:11.0pt;line-height:107%;font-family:&amp;quot;Segoe UI&amp;quot;,sans-serif;&lt;br/&gt;mso-fareast-font-family:Calibri;mso-fareast-theme-font:minor-latin;color:#374151;&lt;br/&gt;mso-ansi-language:EN-US;mso-fareast-language:EN-US;mso-bidi-language:HE&quot;&gt;&lt;/span&gt;company" style="whiteSpace=wrap;html=1;align=center;" vertex="1" parent="1">
          <mxGeometry x="220" y="510" width="100" height="40" as="geometry" />
        </mxCell>
        <mxCell id="SAlh1_uHHdO9KxUeJymk-75" value="" style="endArrow=none;html=1;rounded=0;exitX=0.432;exitY=0.985;exitDx=0;exitDy=0;exitPerimeter=0;entryX=0.432;entryY=-0.004;entryDx=0;entryDy=0;entryPerimeter=0;" edge="1" parent="1" source="SAlh1_uHHdO9KxUeJymk-6" target="SAlh1_uHHdO9KxUeJymk-72">
          <mxGeometry relative="1" as="geometry">
            <mxPoint x="141" y="425" as="sourcePoint" />
            <mxPoint x="141" y="515" as="targetPoint" />
          </mxGeometry>
        </mxCell>
        <mxCell id="SAlh1_uHHdO9KxUeJymk-76" value="M" style="resizable=0;html=1;whiteSpace=wrap;align=left;verticalAlign=bottom;" connectable="0" vertex="1" parent="SAlh1_uHHdO9KxUeJymk-75">
          <mxGeometry x="-1" relative="1" as="geometry">
            <mxPoint x="-12" y="17" as="offset" />
          </mxGeometry>
        </mxCell>
        <mxCell id="SAlh1_uHHdO9KxUeJymk-77" value="1" style="resizable=0;html=1;whiteSpace=wrap;align=right;verticalAlign=bottom;" connectable="0" vertex="1" parent="SAlh1_uHHdO9KxUeJymk-75">
          <mxGeometry x="1" relative="1" as="geometry" />
        </mxCell>
        <mxCell id="SAlh1_uHHdO9KxUeJymk-78" value="" style="shape=rhombus;perimeter=rhombusPerimeter;whiteSpace=wrap;html=1;align=center;" vertex="1" parent="1">
          <mxGeometry x="124" y="415" width="38" height="34" as="geometry" />
        </mxCell>
        <mxCell id="SAlh1_uHHdO9KxUeJymk-79" value="" style="endArrow=none;html=1;rounded=0;exitX=1;exitY=0.5;exitDx=0;exitDy=0;entryX=0.75;entryY=1;entryDx=0;entryDy=0;" edge="1" parent="1" source="SAlh1_uHHdO9KxUeJymk-55" target="SAlh1_uHHdO9KxUeJymk-2">
          <mxGeometry relative="1" as="geometry">
            <mxPoint x="520" y="588" as="sourcePoint" />
            <mxPoint x="710" y="588" as="targetPoint" />
            <Array as="points">
              <mxPoint x="810" y="660" />
              <mxPoint x="810" y="290" />
              <mxPoint x="705" y="290" />
            </Array>
          </mxGeometry>
        </mxCell>
        <mxCell id="SAlh1_uHHdO9KxUeJymk-80" value="M" style="resizable=0;html=1;whiteSpace=wrap;align=left;verticalAlign=bottom;" connectable="0" vertex="1" parent="SAlh1_uHHdO9KxUeJymk-79">
          <mxGeometry x="-1" relative="1" as="geometry" />
        </mxCell>
        <mxCell id="SAlh1_uHHdO9KxUeJymk-81" value="N" style="resizable=0;html=1;whiteSpace=wrap;align=right;verticalAlign=bottom;" connectable="0" vertex="1" parent="SAlh1_uHHdO9KxUeJymk-79">
          <mxGeometry x="1" relative="1" as="geometry">
            <mxPoint y="20" as="offset" />
          </mxGeometry>
        </mxCell>
        <mxCell id="SAlh1_uHHdO9KxUeJymk-82" value="list of visa" style="shape=rhombus;perimeter=rhombusPerimeter;whiteSpace=wrap;html=1;align=center;" vertex="1" parent="1">
          <mxGeometry x="574" y="631" width="90" height="55" as="geometry" />
        </mxCell>
        <mxCell id="SAlh1_uHHdO9KxUeJymk-83" value="pass id&lt;br&gt;visa status&lt;br&gt;each passport" style="shape=rhombus;perimeter=rhombusPerimeter;whiteSpace=wrap;html=1;align=center;" vertex="1" parent="1">
          <mxGeometry x="675" y="631" width="90" height="55" as="geometry" />
        </mxCell>
        <mxCell id="SAlh1_uHHdO9KxUeJymk-87" value="" style="endArrow=none;html=1;rounded=0;exitX=0.828;exitY=0.003;exitDx=0;exitDy=0;entryX=0.25;entryY=1;entryDx=0;entryDy=0;exitPerimeter=0;" edge="1" parent="1" source="SAlh1_uHHdO9KxUeJymk-55" target="SAlh1_uHHdO9KxUeJymk-4">
          <mxGeometry relative="1" as="geometry">
            <mxPoint x="490" y="480" as="sourcePoint" />
            <mxPoint x="680" y="480" as="targetPoint" />
            <Array as="points">
              <mxPoint x="463" y="590" />
              <mxPoint x="695" y="590" />
            </Array>
          </mxGeometry>
        </mxCell>
        <mxCell id="SAlh1_uHHdO9KxUeJymk-88" value="M" style="resizable=0;html=1;whiteSpace=wrap;align=left;verticalAlign=bottom;" connectable="0" vertex="1" parent="SAlh1_uHHdO9KxUeJymk-87">
          <mxGeometry x="-1" relative="1" as="geometry" />
        </mxCell>
        <mxCell id="SAlh1_uHHdO9KxUeJymk-89" value="N" style="resizable=0;html=1;whiteSpace=wrap;align=right;verticalAlign=bottom;" connectable="0" vertex="1" parent="SAlh1_uHHdO9KxUeJymk-87">
          <mxGeometry x="1" relative="1" as="geometry">
            <mxPoint x="-1" y="17" as="offset" />
          </mxGeometry>
        </mxCell>
        <mxCell id="SAlh1_uHHdO9KxUeJymk-90" value="list of vaccine" style="shape=rhombus;perimeter=rhombusPerimeter;whiteSpace=wrap;html=1;align=center;" vertex="1" parent="1">
          <mxGeometry x="556" y="562" width="90" height="55" as="geometry" />
        </mxCell>
        <mxCell id="SAlh1_uHHdO9KxUeJymk-91" value="pass id&lt;br&gt;vaccine id&lt;br&gt;status" style="shape=rhombus;perimeter=rhombusPerimeter;whiteSpace=wrap;html=1;align=center;" vertex="1" parent="1">
          <mxGeometry x="660" y="562" width="90" height="55" as="geometry" />
        </mxCell>
        <mxCell id="SAlh1_uHHdO9KxUeJymk-92" value="" style="endArrow=none;html=1;rounded=0;exitX=0.38;exitY=0.979;exitDx=0;exitDy=0;exitPerimeter=0;entryX=0.38;entryY=0.014;entryDx=0;entryDy=0;entryPerimeter=0;" edge="1" parent="1" source="SAlh1_uHHdO9KxUeJymk-7" target="SAlh1_uHHdO9KxUeJymk-74">
          <mxGeometry relative="1" as="geometry">
            <mxPoint x="259" y="393" as="sourcePoint" />
            <mxPoint x="259" y="500" as="targetPoint" />
          </mxGeometry>
        </mxCell>
        <mxCell id="SAlh1_uHHdO9KxUeJymk-93" value="M" style="resizable=0;html=1;whiteSpace=wrap;align=left;verticalAlign=bottom;" connectable="0" vertex="1" parent="SAlh1_uHHdO9KxUeJymk-92">
          <mxGeometry x="-1" relative="1" as="geometry">
            <mxPoint x="-12" y="17" as="offset" />
          </mxGeometry>
        </mxCell>
        <mxCell id="SAlh1_uHHdO9KxUeJymk-94" value="1" style="resizable=0;html=1;whiteSpace=wrap;align=right;verticalAlign=bottom;" connectable="0" vertex="1" parent="SAlh1_uHHdO9KxUeJymk-92">
          <mxGeometry x="1" relative="1" as="geometry" />
        </mxCell>
        <mxCell id="SAlh1_uHHdO9KxUeJymk-95" value="" style="shape=rhombus;perimeter=rhombusPerimeter;whiteSpace=wrap;html=1;align=center;" vertex="1" parent="1">
          <mxGeometry x="239" y="425" width="38" height="34" as="geometry" />
        </mxCell>
        <mxCell id="SAlh1_uHHdO9KxUeJymk-96" value="" style="endArrow=none;html=1;rounded=0;exitX=0.5;exitY=1;exitDx=0;exitDy=0;" edge="1" parent="1" source="SAlh1_uHHdO9KxUeJymk-71">
          <mxGeometry relative="1" as="geometry">
            <mxPoint x="36" y="403" as="sourcePoint" />
            <mxPoint x="40" y="510" as="targetPoint" />
          </mxGeometry>
        </mxCell>
        <mxCell id="SAlh1_uHHdO9KxUeJymk-97" value="M" style="resizable=0;html=1;whiteSpace=wrap;align=left;verticalAlign=bottom;" connectable="0" vertex="1" parent="SAlh1_uHHdO9KxUeJymk-96">
          <mxGeometry x="-1" relative="1" as="geometry">
            <mxPoint x="-12" y="17" as="offset" />
          </mxGeometry>
        </mxCell>
        <mxCell id="SAlh1_uHHdO9KxUeJymk-98" value="1" style="resizable=0;html=1;whiteSpace=wrap;align=right;verticalAlign=bottom;" connectable="0" vertex="1" parent="SAlh1_uHHdO9KxUeJymk-96">
          <mxGeometry x="1" relative="1" as="geometry" />
        </mxCell>
        <mxCell id="SAlh1_uHHdO9KxUeJymk-99" value="" style="shape=rhombus;perimeter=rhombusPerimeter;whiteSpace=wrap;html=1;align=center;" vertex="1" parent="1">
          <mxGeometry x="22" y="435" width="38" height="34" as="geometry" />
        </mxCell>
      </root>
    </mxGraphModel>
  </diagram>
</mxfile>
